<?xml version="1.0" encoding="iso-8859-1"?>
<!-- Generator: Adobe Illustrator 19.0.0, SVG Export Plug-In . SVG Version: 6.00 Build 0)  -->
<svg version="1.1" id="Capa_1" xmlns="http://www.w3.org/2000/svg" xmlns:xlink="http://www.w3.org/1999/xlink" x="0px" y="0px"
	 viewBox="0 0 513.024 513.024" style="enable-background:new 0 0 513.024 513.024;" xml:space="preserve">
<path style="fill:#FFD15C;" d="M402.432,60.928H109.568c-17.408,0-30.72,13.312-30.72,30.72v41.984h355.328V91.648
	C433.152,74.24,419.84,60.928,402.432,60.928z"/>
<path style="fill:#56BFEB;" d="M463.872,104.96h-29.696v28.672H78.848V104.96h-30.72c-17.408,0-30.72,13.312-30.72,30.72V422.4
	h476.16V135.68C493.568,118.272,480.256,104.96,463.872,104.96z"/>
<path style="fill:#F3F3F3;" d="M402.432,372.224H109.568c-17.408,0-30.72-13.312-30.72-30.72V132.608h355.328v208.896
	C433.152,358.912,419.84,372.224,402.432,372.224z"/>
<g>
	<path style="fill:#F26F5A;" d="M160.768,20.992c-6.144,0-10.24,5.12-10.24,10.24V89.6c0,6.144,5.12,10.24,10.24,10.24
		c5.12,0,10.24-5.12,10.24-10.24V31.232C171.008,26.112,165.888,20.992,160.768,20.992z"/>
	<path style="fill:#F26F5A;" d="M351.232,20.992c-6.144,0-10.24,5.12-10.24,10.24V89.6c0,6.144,5.12,10.24,10.24,10.24
		s10.24-5.12,10.24-10.24V31.232C361.472,26.112,357.376,20.992,351.232,20.992z"/>
</g>
<g>
	<path style="fill:#425A6B;" d="M302.08,242.176h-35.84v-35.84c0-6.144-5.12-10.24-10.24-10.24c-5.12,0-10.24,5.12-10.24,10.24
		v35.84h-35.84c-6.144,0-10.24,5.12-10.24,10.24c0,5.12,5.12,10.24,10.24,10.24h35.84v35.84c0,6.144,5.12,10.24,10.24,10.24
		c5.12,0,10.24-5.12,10.24-10.24v-35.84h35.84c6.144,0,10.24-5.12,10.24-10.24C312.32,247.296,308.224,242.176,302.08,242.176z"/>
	<path style="fill:#425A6B;" d="M0,421.376c0,38.912,31.744,70.656,70.656,70.656h371.712c38.912,0,70.656-31.744,70.656-70.656H0z"
		/>
</g>
<g>
</g>
<g>
</g>
<g>
</g>
<g>
</g>
<g>
</g>
<g>
</g>
<g>
</g>
<g>
</g>
<g>
</g>
<g>
</g>
<g>
</g>
<g>
</g>
<g>
</g>
<g>
</g>
<g>
</g>
</svg>
